<svg xmlns="http://www.w3.org/2000/svg" width="220px" height="46">
            <path xmlns="http://www.w3.org/2000/svg" fill="#d66" stroke="#334" d="M9 29.2l9-22h5.3L12 33.4H4.6l-1-26.2h5l.4 22zm18-15.5h10.3l-3 15.8h6.3l-.7 4H22l.7-4H29l2.4-11.8h-5l.7-4m7-9.5h5.2l-1.2 6h-5.2l1.2-6zm16 2h5.2l-2.6 13.6 7-6h6.6l-9 7.3L63 33.5h-5.5l-4-9.2-2 1.7-1.4 7.4h-5.2L50 6zm20.5 7.5h10.2l-3 15.8H84l-.8 4h-18l.8-4h6.4l2.3-11.8h-5l.8-4m7-9.5h5l-1.2 6h-5l1-6zM106 20.5l-2.4 12.8h-5.2l2.4-12v-1l.2-.8q0-1-.6-1.6-.5-.5-1.4-.5-1.5 0-2.5 1.2-1 1.3-1.5 3.7l-2 11h-5.3l3.8-19.7h5.2l-.6 3q1-1.6 2.5-2.5 1.4-1 3.2-1 2.3 0 3.5 1.3 1.2 1.2 1.2 3.4v1l-.3 1.6zm11.5 8.5q2 0 3.5-2.2 1.5-2.4 1.5-5.7 0-1.6-.7-2.6-.8-1-2-1-2 0-3.5 2.4-1.5 2.3-1.5 5.6 0 1.7.7 2.7.7 1 2 1m8.2 3q-1 4.8-3.3 6.8-2.5 2-7.3 2l-3.2-.2q-1.6-.3-3-.8l.8-4.6q1.4.8 2.8 1.2 1.4.4 3 .4 2.2 0 3.4-1 1.3-1 1.7-3.3l.4-2.3q-1 1.4-2.4 2.2-1.3.7-3 .7-2.8 0-4.4-1.7-1.6-1.8-1.6-5 0-2.4.7-5 .7-2.4 2-4.3 1.3-1.8 3-2.8 1.8-1 3.7-1 1.8 0 3 1t1.5 2.7l.6-3.3h5.3L125.7 32zM144 21q1 .2 1.6.8.6.6 1 2.2l3 9.4H144l-1.8-6.6-.2-.5q-1-3.3-2.8-3.3h-2l-2 10.4h-5.2l5-26.2h7.3q4 0 6 1.5 2 1.6 2 4.7 0 3.3-1.7 5.3t-5 2.3m-4-9.5l-1.6 7.2h2.2q2.4 0 3.6-1 1.2-1.3 1.2-3.4 0-1.4-.8-2-.8-.8-2.4-.8h-2.3zm27 10q0-2-1-3-.8-1-2.3-1-2 0-3.6 2.3-1.6 2.4-1.6 6 0 1.8 1 3 .8 1 2.2 1 2 0 3.6-2.4 1.5-2.4 1.5-6M153.3 26q0-5.7 3-9.3 2.8-3.5 7.5-3.5 3.8 0 6 2 2 2.3 2 6 0 5.7-3 9.2-2.8 3.5-7.5 3.5-3.8 0-6-2.2-2-2-2-6zm37 6.8q-1.5.6-3 .8-1.3.3-2.8.3-4 0-6.2-2.3-2.3-2-2.3-6 0-5.5 3.3-9 3.2-3.4 8.4-3.4 1.7 0 3.2.3 1.4.4 2.7 1l-1 4.8q-1-1-2.2-1.5-1.2-.6-2.5-.6-3 0-5 2.2-1.8 2.2-1.8 5.7 0 2.2 1 3.3 1.2 1 3.4 1 1.2 0 2.6-.3 1.4-.5 3-1.4l-1 4.8zM201.7 6h5L204.4 20l7-6h6.6l-9 7.3 5.5 12.4H209l-4-9.2-2 1.7-1.3 7.4h-5.2L201.8 6z"/>
          </svg>
